HIERARCHY
ROOT Hips
{
	OFFSET -0.001795 -0.223333 0.028219
	CHANNELS 6 Xposition Yposition Zposition Zrotation Yrotation Xrotation 
	JOINT LeftUpLeg
	{
		OFFSET 0.069520 -0.091406 -0.006815
		CHANNELS 3 Zrotation Yrotation Xrotation
		JOINT LeftLeg
		{
			OFFSET 0.034277 -0.375199 -0.004496
			CHANNELS 3 Zrotation Yrotation Xrotation
			JOINT LeftFoot
			{
				OFFSET -0.013596 -0.397961 -0.043693
				CHANNELS 3 Zrotation Yrotation Xrotation
				JOINT LeftToe
				{
					OFFSET 0.026358 -0.055791 0.119288
					CHANNELS 3 Zrotation Yrotation Xrotation
					End Site
					{
						OFFSET 0.000000 0.000000 0.000000
					}
				}
			}
		}
	}
	JOINT RightUpLeg
	{
		OFFSET -0.067670 -0.090522 -0.004320
		CHANNELS 3 Zrotation Yrotation Xrotation
		JOINT RightLeg
		{
			OFFSET -0.038290 -0.382569 -0.008850
			CHANNELS 3 Zrotation Yrotation Xrotation
			JOINT RightFoot
			{
				OFFSET 0.015774 -0.398415 -0.042312
				CHANNELS 3 Zrotation Yrotation Xrotation
				JOINT RightToe
				{
					OFFSET -0.025372 -0.048144 0.123348
					CHANNELS 3 Zrotation Yrotation Xrotation
					End Site
					{
						OFFSET 0.000000 0.000000 0.000000
					}
				}
			}
		}
	}
	JOINT Spine
	{
		OFFSET -0.002533 0.108963 -0.026696
		CHANNELS 3 Zrotation Yrotation Xrotation
		JOINT Spine1
		{
			OFFSET 0.005487 0.135180 0.001092
			CHANNELS 3 Zrotation Yrotation Xrotation
			JOINT Spine2
			{
				OFFSET 0.001457 0.052922 0.025425
				CHANNELS 3 Zrotation Yrotation Xrotation
				JOINT Neck
				{
					OFFSET -0.002778 0.213870 -0.042857
					CHANNELS 3 Zrotation Yrotation Xrotation
					JOINT Head
					{
						OFFSET 0.005152 0.064970 0.051349
						CHANNELS 3 Zrotation Yrotation Xrotation
						End Site
						{
							OFFSET 0.000000 0.000000 0.000000
						}
					}
				}
				JOINT LeftShoulder
				{
					OFFSET 0.078845 0.121749 -0.034090
					CHANNELS 3 Zrotation Yrotation Xrotation
					JOINT LeftArm
					{
						OFFSET 0.090977 0.030469 -0.008868
						CHANNELS 3 Zrotation Yrotation Xrotation
						JOINT LeftForeArm
						{
							OFFSET 0.259612 -0.012772 -0.027456
							CHANNELS 3 Zrotation Yrotation Xrotation
							JOINT LeftHand
							{
								OFFSET 0.249234 0.008986 -0.001171
								CHANNELS 3 Zrotation Yrotation Xrotation
								End Site
								{
									OFFSET 0.000000 0.000000 0.000000
								}
							}
						}
					}
				}
				JOINT RightShoulder
				{
					OFFSET -0.081759 0.118833 -0.038615
					CHANNELS 3 Zrotation Yrotation Xrotation
					JOINT RightArm
					{
						OFFSET -0.096012 0.032551 -0.009143
						CHANNELS 3 Zrotation Yrotation Xrotation
						JOINT RightForeArm
						{
							OFFSET -0.253742 -0.013329 -0.021401
							CHANNELS 3 Zrotation Yrotation Xrotation
							JOINT RightHand
							{
								OFFSET -0.255298 0.007772 -0.005559
								CHANNELS 3 Zrotation Yrotation Xrotation
								End Site
								{
									OFFSET 0.000000 0.000000 0.000000
								}
							}
						}
					}
				}
			}
		}
	}
}
MOTION
Frames: 14
Frame Time: 0.050000
0.036904 0.837328 1.642337 0.669377 4.950634 1.948889 19.580195 2.066465 -41.262896 -31.228447 21.379942 67.347496 20.604226 34.265644 17.789684 0.000000 0.000000 0.000000 -5.959803 1.398531 -42.326230 8.650192 -5.969612 67.813545 -10.209572 -25.381641 -6.359566 0.000000 0.000000 0.000000 3.016254 -4.959537 51.406048 -3.231502 1.450120 -27.787973 -3.900633 11.693998 27.529575 17.738662 -4.655180 -35.705820 0.000000 0.000000 0.000000 -17.136224 -26.958649 9.695982 -32.722668 -17.174864 -0.444513 14.386280 -30.072647 -3.348938 0.000000 0.000000 0.000000 23.971340 9.559178 9.344258 33.294600 21.974970 -1.462717 -18.945735 38.446168 -3.189423 0.000000 0.000000 0.000000 
0.039425 0.835997 1.678120 1.997875 5.945998 0.816886 18.963343 1.936917 -47.267496 -33.481607 20.933634 61.958312 20.769586 33.751092 21.233018 0.000000 0.000000 0.000000 -6.427833 1.029389 -39.200374 7.228233 -5.353427 69.592709 -10.371092 -25.774228 -6.521344 0.000000 0.000000 0.000000 1.232635 -4.337837 52.196483 -4.115291 1.661969 -27.924824 -2.827856 12.917590 28.365572 18.193594 -4.701682 -35.881084 0.000000 0.000000 0.000000 -16.692778 -27.054004 9.251091 -32.924929 -16.581227 -0.465463 15.012379 -29.263856 -3.564959 0.000000 0.000000 0.000000 23.727070 9.898478 9.947730 31.298602 24.093246 -1.230265 -23.435000 37.316201 -4.370585 0.000000 0.000000 0.000000 
0.044886 0.832374 1.714018 2.332602 6.298156 -0.514042 18.566245 1.859275 -51.406190 -32.764327 18.113231 55.337173 20.180520 32.701168 23.475096 0.000000 0.000000 0.000000 -5.556801 1.221596 -35.511919 5.618285 -4.342119 71.888414 -10.327543 -25.805004 -7.427907 0.000000 0.000000 0.000000 0.734349 -4.225770 52.965450 -5.605251 1.985661 -28.019598 -2.367275 14.578967 28.605299 18.782865 -4.425474 -37.462225 0.000000 0.000000 0.000000 -15.786444 -26.388214 8.365426 -33.813633 -15.693771 -0.514032 15.585360 -30.258462 -4.078655 0.000000 0.000000 0.000000 22.846098 9.415686 9.869459 30.526798 25.661887 -0.989601 -25.108505 36.686518 -4.643105 0.000000 0.000000 0.000000 
0.053799 0.826766 1.751150 2.677377 6.341216 -1.754776 17.269669 1.344886 -53.392962 -28.357535 13.401562 48.421961 16.800827 29.034201 22.927698 0.000000 0.000000 0.000000 -5.897198 1.048135 -31.697037 4.946856 -3.938790 73.943693 -10.212100 -25.206409 -5.721683 0.000000 0.000000 0.000000 0.293501 -3.978782 52.966716 -7.517669 2.451655 -26.955516 -1.706253 14.522801 28.459851 18.505185 -4.057347 -38.734768 0.000000 0.000000 0.000000 -14.019566 -24.847257 7.622089 -36.115389 -15.703910 -0.653604 15.728631 -32.316094 -4.491150 0.000000 0.000000 0.000000 20.462694 9.840113 9.325246 31.888587 26.380912 -0.432923 -27.592571 37.476449 -5.347242 0.000000 0.000000 0.000000 
0.066787 0.821954 1.790188 2.652441 5.744742 -2.941210 16.529958 1.190560 -52.107005 -23.432380 9.039955 39.823499 14.443817 26.397159 21.539535 0.000000 0.000000 0.000000 -5.001036 1.234515 -27.674477 3.908865 -2.790594 75.475026 -9.448983 -23.371723 -6.937350 0.000000 0.000000 0.000000 -0.654754 -3.356663 53.207697 -8.261082 2.638463 -26.694884 -1.196642 15.928161 28.324418 19.312411 -4.165449 -39.452679 0.000000 0.000000 0.000000 -12.025439 -23.838813 6.920612 -38.863533 -14.837524 -0.959508 16.669294 -33.869861 -5.253380 0.000000 0.000000 0.000000 20.111705 9.567200 9.280160 32.369984 27.267206 -0.147171 -27.584246 36.494990 -5.080183 0.000000 0.000000 0.000000 
0.083932 0.816436 1.830773 2.894558 4.866215 -2.906142 15.636666 1.030618 -51.307367 -20.478259 7.075742 35.179993 11.946470 23.405123 18.272943 0.000000 0.000000 0.000000 -6.590152 0.842171 -24.361742 3.898400 -2.345229 76.332237 -8.485825 -20.809355 -8.415507 0.000000 0.000000 0.000000 -1.042026 -2.901425 52.829614 -9.905975 2.912574 -27.699335 -0.418533 15.055344 29.516134 19.328842 -4.109479 -41.006258 0.000000 0.000000 0.000000 -12.634208 -22.458897 6.615416 -39.558291 -13.597189 -1.597051 18.305445 -35.290204 -5.855181 0.000000 0.000000 0.000000 18.962800 9.160558 8.462715 34.339448 27.773815 0.283325 -27.071898 38.108673 -5.091615 0.000000 0.000000 0.000000 
0.104822 0.813011 1.872120 2.476940 3.032946 -2.361433 15.773929 1.599452 -51.808228 -19.731182 7.374511 37.457231 9.395664 19.823530 18.175473 0.000000 0.000000 0.000000 -7.317192 0.729274 -20.918137 3.870474 -1.321997 74.758131 -8.217718 -20.095134 -10.591270 0.000000 0.000000 0.000000 -1.052252 -2.347240 51.082091 -9.694247 2.863020 -27.135794 -1.225718 14.572425 30.521340 19.361053 -4.413660 -40.629636 0.000000 0.000000 0.000000 -10.458763 -21.226778 6.440698 -43.186138 -13.619851 -2.258077 19.736393 -36.544687 -6.354014 0.000000 0.000000 0.000000 17.349485 9.487344 8.003222 37.681738 29.518669 1.414621 -27.781572 37.674529 -5.081746 0.000000 0.000000 0.000000 
0.129459 0.813420 1.912923 2.396942 -0.555459 -0.375350 16.215657 2.813834 -51.949555 -19.718855 8.203021 38.856714 9.449282 19.576941 20.867658 0.000000 0.000000 0.000000 -9.039628 0.620013 -18.774931 3.810695 0.509432 71.142473 -8.145680 -19.808519 -11.663185 0.000000 0.000000 0.000000 -2.210337 -0.914268 49.165832 -9.692904 2.808739 -26.408411 -1.642494 14.573131 29.153587 18.505164 -4.458309 -38.540995 0.000000 0.000000 0.000000 -10.117021 -21.585407 6.847072 -43.961128 -12.698232 -2.610344 19.954198 -36.968151 -6.319520 0.000000 0.000000 0.000000 17.124530 10.188123 8.076369 40.037875 29.275655 1.911367 -27.507129 38.498526 -5.163076 0.000000 0.000000 0.000000 
0.156352 0.816108 1.952620 1.324002 -2.934144 1.107233 15.892906 3.423684 -53.117458 -18.659788 8.817398 43.058388 8.353996 17.938778 20.091881 0.000000 0.000000 0.000000 -10.312752 0.563839 -16.707644 3.944996 1.316604 68.068349 -7.170468 -16.667124 -10.350991 0.000000 0.000000 0.000000 -2.836829 -0.129076 47.081619 -8.408945 2.522745 -25.049700 -2.352052 14.139837 29.254450 18.869974 -4.714942 -38.975522 0.000000 0.000000 0.000000 -8.213523 -21.730865 7.174344 -44.357425 -14.917709 -2.159705 19.662300 -35.659602 -5.733438 0.000000 0.000000 0.000000 16.577233 11.340245 8.312164 42.342197 27.657013 1.789558 -26.556146 40.735754 -5.271816 0.000000 0.000000 0.000000 
0.182626 0.823453 1.992381 0.103098 -4.766191 2.927967 14.686266 3.338898 -53.092602 -17.128380 8.849859 45.937919 9.991010 19.949370 16.854526 0.000000 0.000000 0.000000 -10.791729 0.635292 -16.226012 4.521082 1.448952 66.105649 -6.799323 -15.904665 -7.272081 0.000000 0.000000 0.000000 -3.378296 0.438666 45.295839 -7.660254 2.410347 -22.180239 -3.400486 13.522490 27.191889 17.640747 -4.111778 -38.937311 0.000000 0.000000 0.000000 -5.690361 -22.555457 7.588708 -44.542611 -18.107709 -1.068598 22.321729 -33.162994 -5.989155 0.000000 0.000000 0.000000 17.705319 12.827412 9.118442 42.583086 26.976988 1.746437 -25.388268 39.727041 -5.021461 0.000000 0.000000 0.000000 
0.206684 0.829487 2.033622 -0.917933 -5.085554 4.632099 13.534835 2.876669 -53.630206 -16.652565 9.046992 48.089202 11.138806 21.593553 15.726664 0.000000 0.000000 0.000000 -11.944803 0.597629 -16.800053 6.663986 -0.238367 66.370668 -6.401360 -15.898469 -0.225668 0.000000 0.000000 0.000000 -4.715224 1.057730 44.202185 -7.053352 2.276074 -20.928834 -2.128769 12.998510 25.693700 16.696066 -3.928897 -37.368831 0.000000 0.000000 0.000000 -7.503946 -24.665680 8.639527 -41.369990 -19.383330 -0.390518 23.244419 -33.221536 -6.262831 0.000000 0.000000 0.000000 17.686949 12.888683 9.026839 43.710830 24.569841 1.214579 -21.759891 40.759467 -4.086908 0.000000 0.000000 0.000000 
0.227585 0.834344 2.074792 -1.901765 -5.450276 6.088524 12.638704 2.511689 -53.499097 -16.643594 9.498341 49.930530 12.965704 24.361925 13.212591 0.000000 0.000000 0.000000 -12.059468 0.666803 -18.761348 8.580281 -1.711826 68.475614 -7.035701 -17.881758 5.128910 0.000000 0.000000 0.000000 -5.221698 1.382077 44.597869 -6.672965 2.136453 -21.360777 -2.136827 12.097612 25.224773 17.537816 -4.552305 -36.817525 0.000000 0.000000 0.000000 -6.746051 -25.376158 9.056863 -40.218900 -19.803621 -0.316211 24.623515 -35.291611 -7.028843 0.000000 0.000000 0.000000 20.755597 12.691781 9.408939 42.087459 22.915813 0.312017 -18.901518 41.646460 -3.400971 0.000000 0.000000 0.000000 
0.245346 0.839143 2.113464 -2.795696 -5.005135 6.293066 11.633991 1.762143 -51.716546 -16.491870 9.592650 51.239731 13.822519 25.885042 11.238619 0.000000 0.000000 0.000000 -11.606483 0.745252 -22.047523 11.749547 -4.808315 72.022371 -8.698256 -21.266662 8.459399 0.000000 0.000000 0.000000 -5.585227 1.530314 46.194513 -4.926166 1.662440 -23.149013 -2.337511 11.394354 25.901570 17.182323 -4.759930 -35.580848 0.000000 0.000000 0.000000 -7.414747 -24.840101 9.002014 -37.855601 -20.088214 -0.374716 25.682363 -37.488649 -7.826021 0.000000 0.000000 0.000000 22.229104 12.583292 9.559876 41.616921 21.901950 -0.199532 -16.890705 43.152705 -2.864424 0.000000 0.000000 0.000000 
0.260188 0.844308 2.148656 -3.746127 -5.773341 6.105828 10.879720 1.502315 -49.865893 -15.294773 9.279008 52.574280 13.885630 26.186368 9.073085 0.000000 0.000000 0.000000 -10.755697 1.016874 -25.891079 14.981755 -7.498716 73.780120 -10.830901 -25.410333 7.460352 0.000000 0.000000 0.000000 -5.482422 1.683865 47.330770 -4.996442 1.668311 -22.853218 -2.465827 10.303304 25.317476 17.201403 -5.267027 -34.216002 0.000000 0.000000 0.000000 -5.528450 -24.654345 8.905521 -38.123924 -20.850057 -0.219006 28.348033 -39.181987 -9.008034 0.000000 0.000000 0.000000 23.565253 12.883324 9.546819 41.384117 21.301074 -0.312023 -15.755293 44.733240 -2.701911 0.000000 0.000000 0.000000 
